<?xml version="1.0" encoding="UTF-8"?>
<!-- Generated by Pixelmator Pro 3.3.2 -->
<svg width="543" height="543" viewBox="0 0 543 543" xmlns="http://www.w3.org/2000/svg" xmlns:xlink="http://www.w3.org/1999/xlink">
    <path d="M 81.628326 352.5 C 92.073906 276.173828 97.332314 237.698853 100.052765 217.757324 C 102.773216 197.815796 105.700546 179.616119 106.557945 177.313568 C 107.415344 175.011047 109.821442 171.587158 111.904831 169.704956 C 113.98822 167.822723 117.775284 165.487427 120.320534 164.515381 C 123.502274 163.300262 126.660965 162.890076 130.429642 163.202606 C 134.172501 163.513 137.42334 164.592163 140.679092 166.605011 C 143.555878 168.383606 146.624573 171.457336 148.415573 174.354218 C 151.022461 178.57077 151.474731 180.455444 152.128754 189.827789 C 152.538361 195.69751 152.901962 206.251953 152.936752 213.282104 C 152.979004 221.820435 153.462952 227.172211 154.394363 229.401428 C 155.16127 231.236877 156.836395 233.472412 158.116867 234.369293 C 159.430939 235.289703 162.402786 236 164.939728 236 C 169.434433 236 169.434433 236 234.621368 170.75 C 285.055817 120.266724 301.002106 104.877655 305.083466 102.75 C 308.828857 100.797485 311.829102 100.002838 315.429321 100.009766 C 318.634277 100.01593 322.354736 100.883209 325.540863 102.366882 C 328.313354 103.657898 331.869019 106.240997 333.442413 108.107117 C 335.015778 109.973206 336.909882 112.948059 337.65155 114.717896 C 338.393188 116.487701 339 120.569519 339 123.788574 C 339 128.229187 338.336487 130.912933 336.25 134.911407 C 334.163483 138.909912 322.461853 151.208893 287.75 185.887024 C 242 231.592651 242 231.592651 242 236.396332 C 242 240.526001 242.477051 241.677063 245.399994 244.600006 C 248.139603 247.3396 249.581253 248 252.822266 248 C 255.841537 248 257.880219 247.189575 260.997986 244.75 C 263.282379 242.962494 289.819641 216.75 319.969666 186.5 C 362.284302 144.045044 375.993408 130.872742 380.073242 128.75 C 383.841522 126.789368 386.814117 126.006317 390.429321 126.021973 C 393.218201 126.034027 397.299988 126.864471 399.5 127.86734 C 401.700012 128.870209 404.911621 130.882538 406.636932 132.339142 C 408.362244 133.795746 410.770325 137.107391 411.98822 139.698334 C 413.760803 143.46936 414.127441 145.73877 413.825989 151.073944 C 413.528351 156.341217 412.825653 158.722717 410.474701 162.43161 C 408.838623 165.012695 382.075012 192.501892 351 223.518738 C 307.5914 266.846039 294.172852 280.811279 293.088165 283.7901 C 291.808868 287.303223 291.855804 288.034943 293.588165 291.583618 C 294.835724 294.139252 296.800873 296.135681 299.244049 297.329529 C 302.449738 298.895935 303.528198 298.986633 306.744049 297.960083 C 309.685516 297.021149 320.403198 286.86615 356.168427 251.130585 C 385.083435 222.239532 403.411926 204.674591 406.13031 203.25 C 409.091278 201.698303 412.142578 201.003021 415.961884 201.009766 C 419.658081 201.016296 423.176544 201.800232 426.540863 203.366882 C 429.313354 204.657898 432.817505 207.182831 434.327881 208.977814 C 435.838257 210.772827 437.732391 213.817078 438.537018 215.742859 C 439.341644 217.66861 439.990112 221.776794 439.978027 224.872131 C 439.964447 228.357849 439.179901 232.211243 437.91687 234.995819 C 436.386932 238.368866 424.280212 251.121765 389.438843 286.06134 C 343 332.631042 343 332.631042 343 337.415527 C 343 341.550354 343.475342 342.675354 346.500641 345.700623 C 349.631531 348.831543 350.472961 349.163757 354.46701 348.84613 C 358.849945 348.497528 359.475922 347.949768 388.238312 319.294556 C 413.121033 294.504578 418.426453 289.694122 423.39151 287.421021 C 428.348541 285.151642 430.148895 284.826416 435.212616 285.285583 C 439.354431 285.661133 442.605988 286.705078 445.81662 288.690063 C 448.592316 290.406128 451.659393 293.513672 453.473572 296.447998 C 456.10791 300.708984 456.5 302.274994 456.5 308.535706 C 456.5 313.455688 455.917114 316.956055 454.655182 319.614136 C 453.552856 321.936035 442.686005 333.707458 427.655182 348.861633 C 413.819824 362.810547 392.375 383.929504 380 395.792664 C 367.625 407.655853 351.424988 422.512451 344 428.807312 C 336.575012 435.102173 325.325012 444.103027 319 448.809143 C 312.674988 453.515259 303.225006 460.162445 298 463.580627 C 292.774994 466.99881 283.403412 472.609467 277.174255 476.048767 C 270.945129 479.488037 261.712494 484.005005 256.657349 486.086456 C 251.602203 488.167908 242.964035 491.175842 237.461411 492.770721 C 228.908081 495.249817 226.371735 496.514374 219.978317 501.487244 C 215.86525 504.686462 208.973526 509.935577 204.663406 513.151978 C 197.719833 518.333618 196.293427 519 192.146103 519 C 187.465393 519 187.465393 519 122.749054 454.75 C 65.06958 397.486145 57.964977 390.094971 57.409744 386.774933 C 56.955265 384.057373 57.288918 382.239868 58.643387 380.055054 C 59.664524 378.407928 65.253868 371.53421 71.064163 364.780151 L 81.628326 352.5 Z M 47.516228 286.202545 C 61.204525 186.458069 66.637962 147.115692 68.4217 134.423737 C 71.472282 112.717651 71.851707 111.075867 74.811882 106.773407 C 76.929085 103.696167 79.666069 101.348663 83.175797 99.59967 C 87.034576 97.676788 89.940125 97 94.336815 97 C 98.49128 97 101.63102 97.674255 104.765068 99.239471 C 107.231339 100.471191 110.539589 103.044434 112.116745 104.957794 C 113.693893 106.871155 115.649223 110.475891 116.461922 112.968323 C 117.397072 115.836304 117.993233 122.052734 118.085785 129.901154 C 118.232025 142.302307 118.232025 142.302307 113.623871 144.051514 C 111.089386 145.01358 107.047081 146.954437 104.640976 148.364502 C 102.234863 149.774597 97.882591 153.531921 94.969269 156.714142 C 92.055946 159.896362 88.554596 164.935577 87.188499 167.912415 C 85.43264 171.738556 84.019394 178.186371 82.366501 189.912415 C 81.080513 199.035583 75.977371 236.200012 71.026192 272.5 C 66.075012 308.799988 61.578682 340.093689 61.034344 342.041504 C 60.490005 343.98938 58.660152 346.914368 56.968006 348.541504 C 55.275856 350.168701 53.573792 351.614014 53.185631 351.753357 C 52.797478 351.8927 46.298809 345.813782 38.744152 338.244629 C 31.115324 330.601166 24.471151 323.059174 23.800001 321.281097 C 22.798176 318.626953 22.86524 317.517242 24.192295 314.789825 C 25.072683 312.980408 30.680727 305.808075 36.654617 298.851257 L 47.516228 286.202545 Z M 155.611115 149.895569 C 249.277435 56.053284 268.802887 37.185333 271.5 35.920197 C 273.882446 34.802673 277.752686 34.035034 281.070679 34.021973 C 285.195953 34.005707 288.05011 34.713531 292.070679 36.75 C 295.902924 38.691071 298.439178 40.905304 300.692841 44.277435 C 302.448914 46.905029 304.18512 51.051605 304.551086 53.492035 C 304.931122 56.026459 304.690521 60.121643 303.989929 63.041962 C 303.315338 65.853973 301.354126 69.933136 299.631714 72.10675 C 297.909271 74.280396 281.505066 91.313812 263.177917 109.958862 C 244.850784 128.603882 217.31192 156.603149 201.980453 172.179443 C 174.105057 200.5 174.105057 200.5 174.052521 192.386475 C 174.023636 187.924072 173.54068 181.851013 172.979294 178.890808 C 172.417908 175.930634 170.639755 170.690369 169.027847 167.245819 C 167.415939 163.801239 163.737747 158.488281 160.854111 155.43927 L 155.611115 149.895569 Z M 506.109039 130 C 487.153839 130 487.153839 130 484.076935 126.923065 C 481.598053 124.444214 481 123.012939 481 119.559448 C 481 116.281281 481.608948 114.663757 483.588348 112.684387 C 485.164612 111.108124 487.803955 109.853424 490.338348 109.475555 C 492.627258 109.134308 502.227509 109.000183 511.672241 109.177551 C 528.155457 109.487061 528.945862 109.595337 531.370361 111.87558 C 532.759644 113.182159 534.170105 115.498047 534.504822 117.022003 C 534.854126 118.612335 534.465515 121.343414 533.592651 123.432404 C 532.540527 125.950562 530.992371 127.523071 528.568115 128.53598 C 525.909973 129.646606 520.48877 130 506.109039 130 Z M 366.127472 107.426697 C 360.084869 113.353424 360.084869 113.353424 359.065094 110.426697 C 358.504211 108.817017 356.906708 105.25 355.515076 102.5 C 354.123444 99.75 351.088196 95.517914 348.770081 93.095337 C 346.451965 90.672791 342.292877 87.25119 339.527649 85.491821 C 336.762451 83.732422 332.8125 81.742126 330.75 81.068909 C 328.6875 80.395691 327 79.487 327 79.049591 C 327 78.612152 330.421387 75.004272 334.603058 71.032104 C 338.784729 67.059906 344.072235 62.962585 346.353058 61.926941 C 348.792267 60.819366 352.794067 60.034882 356.070679 60.021973 C 360.195953 60.005707 363.05011 60.713531 367.070679 62.75 C 370.880219 64.679565 373.440186 66.906799 375.651398 70.215393 C 377.550415 73.056854 379.070557 76.877594 379.476532 79.829468 C 379.869507 82.686646 379.662964 86.537964 378.980927 89.070862 C 378.337769 91.45932 376.542236 95.233002 374.990814 97.456757 C 373.439392 99.680542 369.450897 104.167023 366.127472 107.426697 Z M 478.952972 88.411316 C 476.752441 88.779755 474.50708 88.43808 472.762573 87.46936 C 471.256989 86.633331 469.304657 84.55603 468.424072 82.85318 C 467.406525 80.885437 467.04126 78.593536 467.421906 76.564606 C 467.751312 74.808777 469.478638 72.012512 471.260406 70.350677 C 473.042175 68.688873 479.798065 63.612061 486.273499 59.068878 C 492.748901 54.525696 499.300446 50.335419 500.832458 49.757141 C 502.377136 49.174072 505.283325 49.018158 507.356659 49.407135 C 510.062225 49.914703 511.649414 50.991638 513.10022 53.30426 C 514.559143 55.629822 514.971375 57.589142 514.614258 60.5 C 514.279358 63.229401 513.228333 65.294128 511.305481 67 C 509.755554 68.375 502.61911 73.624969 495.446686 78.666595 C 487.519165 84.239044 481.052032 88.059906 478.952972 88.411316 Z M 442.74173 62 C 440.48056 62 438.394348 61.16806 436.686462 59.585236 C 435.253387 58.257111 433.767487 55.921783 433.38446 54.39566 C 433.001404 52.869507 433.122803 50.018646 433.654175 48.060425 C 434.185577 46.102203 436.55307 39.325012 438.915253 33 C 441.277466 26.674988 444.082794 19.629333 445.149292 17.342957 C 446.418915 14.621155 448.24472 12.637207 450.437592 11.59668 C 452.550903 10.593811 454.940125 10.238037 456.912384 10.632446 C 458.63147 10.976318 461.041962 12.300415 462.269012 13.575012 C 463.496063 14.849609 464.755035 16.929138 465.066742 18.196228 C 465.378448 19.463257 465.318237 21.849976 464.932953 23.5 C 464.547638 25.150024 462.881012 30.099976 461.229309 34.5 C 459.577606 38.899994 456.831421 46.111877 455.126648 50.526398 C 452.796234 56.561035 451.30304 58.980499 449.109253 60.276398 C 447.504456 61.224365 444.639069 62 442.74173 62 Z"/>
</svg>
