<?xml version="1.0" encoding="UTF-8"?>
<!-- Generated by Pixelmator Pro 3.3.2 -->
<svg width="543" height="543" viewBox="0 0 543 543" xmlns="http://www.w3.org/2000/svg" xmlns:xlink="http://www.w3.org/1999/xlink">
    <path   d="M 197.370758 524.253723 C 194.693451 524.641907 190.444641 524.637634 187.928879 524.244141 C 185.413132 523.850647 181.373489 522.519775 178.951874 521.286621 C 175.871201 519.717834 155.58931 499.779816 111.415977 454.895813 C 50.908653 393.414978 48.192932 390.496826 46.116974 384.729858 C 44.434689 380.056519 44.062706 377.26178 44.451389 372.21637 C 44.759159 368.221344 45.828987 364.035156 47.229969 361.343903 C 49.508083 356.967743 49.508083 356.967743 34.7817 341.991821 C 26.373222 333.440857 19.211203 325.244995 18.087753 322.888184 C 16.559036 319.681091 16.136209 316.723145 16.192059 309.626373 C 16.255823 301.524048 16.569027 299.986389 18.964952 296.013428 C 20.450508 293.550049 25.752975 286.841705 30.748203 281.106018 C 39.666901 270.865265 39.849915 270.551575 40.911442 263.685455 C 41.505978 259.839844 46.822819 223.43042 52.726627 182.775604 C 63.072948 111.528717 63.580692 108.605804 66.778328 101.883698 C 68.766853 97.7034 72.071716 92.957184 75.028152 90.035767 C 78.0289 87.070648 82.847672 83.816406 87.333076 81.726044 C 93.108536 79.034454 96.349449 78.197571 102.293488 77.863129 C 106.768875 77.611206 111.956993 77.970245 114.941658 78.738312 C 117.724831 79.45459 122.602295 81.432709 125.780457 83.134186 C 128.958618 84.835632 133.733246 88.644745 136.390747 91.598785 C 139.048248 94.552887 142.370819 99.364349 143.774261 102.291016 C 145.177689 105.217682 146.74324 110.292542 147.253265 113.568512 C 147.763275 116.844482 148.154984 123.108002 148.123688 127.487427 C 148.066818 135.450073 148.066818 135.450073 203.748489 80.816101 C 254.025436 31.485168 260.063446 25.884644 265.954468 23.117004 C 269.542877 21.431213 275.523621 19.604919 279.245056 19.058655 C 283.850647 18.382507 288.000916 18.401794 292.241669 19.119019 C 295.668365 19.698608 301.162933 21.526367 304.451843 23.180786 C 307.740753 24.835205 312.381714 28.096069 314.765137 30.427246 C 317.148499 32.758331 320.397827 36.746307 321.98584 39.289337 C 323.573822 41.832367 325.550232 46.305328 326.377869 49.229431 C 327.205475 52.153381 328.182159 54.409546 328.548218 54.24292 C 328.914337 54.076385 331.475433 52.481232 334.239532 50.698181 C 337.003662 48.915192 341.360291 46.851837 343.920959 46.112976 C 346.481628 45.374207 350.988617 44.501434 353.936554 44.173676 C 356.88443 43.845917 361.734589 44.07428 364.714691 44.681122 C 367.694733 45.287964 372.520874 46.900574 375.439453 48.264587 C 378.358002 49.628601 383.244171 53.144958 386.297607 56.078613 C 389.351013 59.012268 392.915588 63.26532 394.218842 65.529785 C 395.522095 67.794281 397.241974 71.864258 398.040802 74.574188 C 398.839661 77.284119 399.455109 83.101074 399.408478 87.500885 C 399.353638 92.675415 398.668976 97.261108 397.469727 100.486023 C 396.450043 103.228088 395.279938 106.225311 394.869446 107.146545 C 394.286774 108.454254 394.851776 109.029541 397.446198 109.77005 C 399.273895 110.291779 403.196838 111.974396 406.163849 113.509186 C 409.13089 115.043976 413.855377 118.634827 416.662781 121.488892 C 419.470245 124.342896 422.928833 129.186584 424.348572 132.252594 C 425.768341 135.318634 427.443146 140.917786 428.070374 144.695251 C 428.954742 150.021301 428.93045 153.063629 427.962189 158.245941 C 427.275482 161.921387 425.092651 168.018585 423.11145 171.795227 C 421.130402 175.571869 419.31665 179.136017 419.081055 179.715546 C 418.845459 180.295044 421.055542 181.547455 423.992218 182.498657 C 426.929047 183.44986 431.42453 185.638092 433.98233 187.36145 C 436.540161 189.084747 440.413147 192.549561 442.588959 195.061035 C 444.76474 197.572479 447.609436 201.941559 448.91037 204.770081 C 450.211334 207.598602 451.800842 212.581177 452.442627 215.842468 C 453.095612 219.160767 453.308807 224.006866 452.926727 226.846619 C 452.551239 229.637604 451.497803 234.165344 450.585876 236.908234 C 449.673889 239.651154 447.796967 243.686493 446.414825 245.875702 C 445.032806 248.064911 441.63797 252.233978 438.870789 255.14032 C 436.103638 258.046631 434.231049 260.789185 434.709503 261.234833 C 435.187988 261.680481 437.903473 262.819092 440.743896 263.765106 C 443.584381 264.71109 447.618378 266.752258 449.708496 268.301086 C 451.798584 269.849854 455.444641 273.261993 457.810883 275.883545 C 460.177094 278.505096 463.225433 283.131073 464.58493 286.163422 C 465.944397 289.195831 467.519073 294.827637 468.084198 298.678711 C 468.865082 304.000885 468.796936 307.14563 467.799927 311.787903 C 467.078522 315.146973 465.102509 320.61615 463.408875 323.941528 C 460.832977 328.999115 454.20813 336.04953 422.894653 367.058411 C 402.305481 387.447266 379.114685 409.837708 371.359528 416.814972 C 363.60437 423.792236 352.503448 433.398621 346.690765 438.162445 C 340.878113 442.926331 331.143707 450.435364 325.058807 454.849243 C 318.973877 459.263092 308.900055 466.12262 302.672577 470.092621 C 296.445068 474.062622 284.865692 480.534088 276.940643 484.473633 C 268.663513 488.588196 256.821991 493.452789 249.115372 495.90451 C 236.016663 500.071594 235.39357 500.403015 222.77037 509.916687 C 215.659409 515.27594 208.130722 520.5354 206.039978 521.604309 C 203.949188 522.673279 200.04805 523.865479 197.370758 524.253723 Z M 194.161331 504.841095 C 195.538559 504.563385 198.648407 502.987305 201.072098 501.338684 C 203.495789 499.690063 210.241959 494.723633 216.063599 490.302185 C 223.864151 484.377777 228.255707 481.78186 232.758804 480.433411 C 236.119522 479.427063 242.478439 477.443756 246.889725 476.026093 C 251.30101 474.608459 261.235291 470.290344 268.965912 466.430298 C 276.696533 462.570251 288.223053 456.066223 294.580444 451.976929 C 300.937836 447.887604 311.412354 440.586334 317.857178 435.751831 C 324.302002 430.917328 335.39682 422.086334 342.51236 416.12738 C 349.627899 410.168427 375.554199 385.621704 400.126343 361.579102 C 424.698456 337.536469 445.519836 316.524445 446.396057 314.885681 C 447.272247 313.246887 448.212738 308.979126 448.48587 305.401855 C 448.923309 299.67511 448.642365 298.23938 446.136108 293.392059 C 444.42984 290.091858 441.713501 286.767365 439.354889 285.092529 C 437.190765 283.555878 433.285736 281.888 430.677124 281.3862 C 427.966797 280.864807 423.89563 280.832764 421.177429 281.311432 C 418.561218 281.772125 414.701782 283.371185 412.600983 284.864929 C 410.500092 286.358673 396.410034 299.746368 381.289673 314.615326 C 355.036194 340.432343 353.628387 341.648499 350.028809 341.620148 C 347.835846 341.602905 345.066284 340.726624 343.406403 339.524902 C 341.758759 338.332031 340.136993 335.903992 339.568054 333.77832 C 338.775818 330.818481 338.926697 329.442657 340.338196 326.755463 C 341.303711 324.917419 361.635254 304.136536 385.519409 280.575775 C 414.615906 251.873199 429.552429 236.436066 430.785431 233.79248 C 431.797668 231.622498 432.858521 227.918335 433.143005 225.561035 C 433.427551 223.203735 433.114441 219.264404 432.447174 216.806976 C 431.779907 214.349548 429.725037 210.547699 427.880829 208.358429 C 426.03653 206.16922 422.475189 203.36438 419.966553 202.125549 C 416.188141 200.259613 414.237122 199.94751 408.595642 200.306549 C 403.208069 200.649445 400.909821 201.337067 397.592773 203.598602 C 395.286682 205.170868 373.81134 225.710022 349.86972 249.24115 C 320.972656 277.642822 305.497986 292.165802 303.836121 292.443787 C 302.459229 292.674103 299.899536 292.479065 298.147888 292.010437 C 296.39624 291.541809 294.047028 289.85025 292.927368 288.251343 C 291.733032 286.545807 290.903992 283.777344 290.921478 281.553101 C 290.950409 277.877563 292.686432 276.050659 347.841797 221.652161 C 389.125427 180.935059 405.204102 164.449127 406.452209 161.55719 C 407.398163 159.365356 408.409637 155.661438 408.69989 153.326294 C 408.990204 150.991119 408.646454 146.939789 407.936035 144.323334 C 407.053864 141.074188 405.212067 138.111145 402.126038 134.976135 C 399.042786 131.843933 396.105743 129.952759 392.878906 129.021851 C 390.278046 128.271576 385.897675 127.856232 383.144714 128.098907 C 379.979889 128.377869 376.455475 129.592316 373.56012 131.40152 C 371.041565 132.97525 343.929138 158.928986 313.310333 189.076477 C 259.249664 242.304901 257.529633 243.889191 253.832779 243.860107 C 251.618103 243.842682 248.847839 242.977325 247.209427 241.791107 C 245.6604 240.669647 243.887161 238.177917 243.268982 236.253967 C 242.322891 233.309601 242.438995 232.191223 244.002594 229.188721 C 245.024292 227.226776 264.907867 206.937988 288.188293 184.102509 C 311.468719 161.267059 331.856506 140.506439 333.494568 137.967834 C 335.679108 134.582153 336.600067 131.765656 336.9505 127.398682 C 337.278595 123.310333 336.907166 120.047852 335.764954 116.984802 C 334.782227 114.349579 332.32782 110.938171 329.766846 108.647827 C 327.382751 106.515717 323.669983 104.22818 321.516266 103.564423 C 319.362579 102.900604 315.627655 102.351898 313.216431 102.345032 C 310.805206 102.338135 306.800293 103.230103 304.316589 104.327179 C 300.863098 105.852661 284.923279 120.954834 236.559097 168.523987 C 194.025009 210.358948 172.343872 231.00827 170.34407 231.58783 C 168.35965 232.162964 166.381226 232.030579 164.395935 231.18988 C 162.759857 230.49707 160.657532 228.744385 159.724106 227.295105 C 158.303375 225.089111 157.949173 220.990784 157.54892 202.128326 C 157.135162 182.629089 156.805267 178.988922 155.097504 175.080994 C 154.012222 172.597351 151.483627 169.101868 149.478455 167.313171 C 147.473297 165.524475 143.354843 163.319489 140.326385 162.413177 C 135.883041 161.083466 133.847168 160.966003 129.780457 161.804749 C 127.00869 162.376404 123.093628 163.944611 121.080307 165.289642 C 119.067009 166.634674 116.181229 169.548309 114.667465 171.764374 C 113.153702 173.980438 111.640419 177.467163 111.304626 179.512665 C 110.968819 181.558197 105.683197 217.843445 99.558784 260.146545 C 93.434387 302.449677 88.155884 338.487854 87.828812 340.231445 C 87.445648 342.273987 84.18882 346.872406 78.672302 353.15979 C 73.963295 358.526794 68.748352 364.707336 67.083542 366.894287 C 64.611496 370.141724 64.111908 371.65094 64.35817 375.127594 C 64.653687 379.299561 65.868706 380.614777 125.169502 440.955902 C 158.449875 474.820129 187.024338 503.161438 188.668274 503.936615 C 190.312225 504.711792 192.784103 505.118805 194.161331 504.841095 Z M 62.126598 341.354492 C 62.795048 341.359741 64.577248 339.770691 66.087036 337.823242 C 68.748688 334.390045 69.191559 331.81488 80.659103 253.094208 C 90.900673 182.789368 92.827728 171.183563 95.034721 166.516968 C 96.436447 163.553009 99.511879 158.993652 101.86898 156.385071 C 104.226082 153.776489 108.126549 150.308228 110.536636 148.677856 C 112.946732 147.047455 118.092636 144.740845 121.971954 143.552032 C 129.025284 141.390533 129.025284 141.390533 128.551285 128.87851 C 128.28952 121.969177 127.437454 114.519196 126.648415 112.240997 C 125.862549 109.971954 123.61013 106.480499 121.643051 104.482147 C 119.675957 102.483948 116.128105 100.091095 113.758926 99.164886 C 110.807594 98.011078 107.468864 97.596466 103.1548 97.848053 C 98.395309 98.125549 95.834999 98.886444 92.666443 100.964844 C 90.360954 102.477142 87.273636 105.498596 85.805717 107.679291 C 83.55574 111.021759 82.735115 114.338654 80.578026 128.808868 C 79.170708 138.24942 75.390778 164.065552 72.178177 186.178009 C 68.965599 208.290466 64.605591 238.258728 62.489311 252.774139 C 58.641518 279.165802 58.641518 279.165802 47.574734 291.723328 C 41.487999 298.629913 36.033298 305.785095 35.453152 307.623627 C 34.593834 310.346954 34.74371 311.634735 36.261898 314.572449 C 37.28685 316.555725 43.252239 323.3909 49.518326 329.761688 C 55.784409 336.132507 61.45813 341.349243 62.126598 341.354492 Z M 178.596832 198.054321 C 179.009354 197.899323 207.701675 170.079712 242.357468 136.232941 C 304.770508 75.276978 305.38443 74.638733 307.09082 68.936829 C 308.291962 64.923096 308.617981 61.670746 308.167633 58.193939 C 307.771332 55.134399 306.318237 51.391998 304.407227 48.509369 C 302.34259 45.394897 299.621033 42.941162 296.333618 41.230164 C 292.500763 39.235352 289.874939 38.638 284.77121 38.599915 C 279.156647 38.558044 277.456177 38.993896 273.41507 41.51062 C 270.800995 43.138672 244.450058 68.330902 214.857391 97.493439 C 161.052597 150.516144 161.052597 150.516144 164.816406 154.664459 C 166.88652 156.946045 169.719299 160.81842 171.11145 163.269745 C 172.503616 165.721069 174.336899 170.176422 175.185379 173.170502 C 176.033844 176.164612 176.711487 181.345123 176.691254 184.682709 C 176.671066 188.020325 176.922806 192.457733 177.250641 194.54361 C 177.578537 196.629486 178.18428 198.20929 178.596832 198.054321 Z M 499.48938 132.789856 C 483.130707 132.661133 483.130707 132.661133 479.910553 129.738007 C 477.28949 127.358795 476.696259 126.066559 476.722015 122.792603 C 476.741943 120.261261 477.455627 118.006897 478.647125 116.710815 C 479.688538 115.578156 482.164154 114.214172 484.148438 113.679749 C 486.132751 113.145325 494.633057 112.759674 503.037994 112.822754 C 514.19635 112.906494 519.261047 113.339478 521.808533 114.42749 C 524.033813 115.37793 525.763794 117.05191 526.585266 119.049683 C 527.293762 120.772339 527.659241 123.256134 527.397461 124.569214 C 527.135742 125.882294 525.832092 128.029114 524.500488 129.339935 C 523.168823 130.650787 520.677368 131.992218 518.963745 132.320953 C 517.250183 132.649658 508.486664 132.860687 499.48938 132.789856 Z M 326.450226 83.998047 C 335.451416 88.215729 340.117584 91.276215 342.62674 93.520172 C 345.135895 95.764099 348.588654 99.746399 350.2995 102.369751 C 352.010345 104.993103 354.151611 109.73233 355.05777 112.901276 C 355.963959 116.070221 357.062195 118.666473 357.49826 118.670654 C 357.934326 118.674866 362.068481 114.995392 366.685303 110.49408 C 371.302094 105.992798 375.997131 100.517059 377.118652 98.325806 C 378.240173 96.134552 379.482361 92.482422 379.879059 90.209869 C 380.284088 87.889587 380.114075 84.161499 379.491241 81.706573 C 378.881287 79.302216 377.313934 75.664032 376.00827 73.621613 C 374.702637 71.579163 371.608917 68.699554 369.133392 67.222443 C 366.226776 65.48822 362.55072 64.331635 358.75592 63.957397 C 353.85849 63.474457 351.981628 63.78952 347.490295 65.848724 C 343.99707 67.450317 339.348053 71.077393 334.275665 76.158813 L 326.450226 83.998047 Z M 473.900269 92.397064 C 470.702362 92.65387 469.336273 92.20575 467.207825 90.201752 C 465.736847 88.816956 464.239044 86.470612 463.879242 84.987885 C 463.477448 83.331726 463.818115 81.073151 464.762573 79.132111 C 465.82016 76.958527 470.734497 72.894501 480.508026 66.111145 C 488.322571 60.6875 495.897369 55.865356 497.341064 55.395325 C 499.192596 54.79245 500.943024 55.016113 503.28241 56.154388 C 505.106415 57.04187 507.311676 59.173492 508.182892 60.891327 C 509.155029 62.807983 509.522095 65.089203 509.133118 66.796143 C 508.784454 68.325989 507.27475 70.691498 505.778229 72.052673 C 504.281677 73.413879 497.401001 78.475677 490.487823 83.301056 C 480.642792 90.172821 477.047455 92.144348 473.900269 92.397064 Z M 442.115509 66.884552 C 439.921051 67.30307 438.192871 66.824127 435.70636 65.108215 C 433.833862 63.816162 431.910156 61.543823 431.431458 60.058563 C 430.765289 57.991486 431.287781 55.29837 433.659088 48.575714 C 435.362946 43.745361 438.380615 35.757385 440.364929 30.824585 C 442.359894 25.865479 444.9841 21.090088 446.234924 20.142761 C 447.479065 19.2005 450.123871 18.432251 452.112183 18.43573 C 454.266907 18.439392 456.770386 19.275757 458.30899 20.505676 C 459.732941 21.643982 461.155945 24.048584 461.482452 25.868103 C 461.943115 28.434631 460.691437 32.798706 455.843567 45.52951 C 452.409454 54.547638 448.60434 62.883972 447.366333 64.101807 C 446.13089 65.317139 443.768066 66.569336 442.115509 66.884552 Z"/>
</svg>
