<?xml version="1.0" encoding="UTF-8"?>
<svg width="1024px" height="1024px" viewBox="0 0 1024 1024" xmlns="http://www.w3.org/2000/svg" xmlns:xlink="http://www.w3.org/1999/xlink" version="1.1">
 <!-- Generated by Pixelmator Pro 2.1.3 -->
 <g id="Icon">
  <g id="Bottom">
   <path id="2" d="M514.699 953.913 C477.744 954.107 445.982 953.477 442.642 952.485 439.358 951.509 434.53 948.167 431.914 945.058 429.215 941.851 426.609 935.75 425.89 930.954 425.193 926.305 425.143 920.429 425.779 917.896 426.415 915.362 428.234 911.991 429.821 910.403 431.409 908.816 435.438 907.017 438.775 906.407 442.112 905.796 477.277 905.551 516.918 905.861 588.994 906.426 588.994 906.426 593.287 910.725 596.788 914.231 597.569 917.047 597.519 925.986 597.479 933.119 596.317 938.689 594.193 941.931 592.397 944.672 588.645 948.411 585.855 950.24 581.28 953.24 574.302 953.6 514.699 953.913 Z" fill="#646464" fill-opacity="1" stroke="none"/>
   <path id="1" d="M514.09 882.296 C470.818 882.507 433.688 881.965 431.578 881.093 429.468 880.22 426.6 878.131 425.204 876.45 423.809 874.769 422.055 867.674 421.305 860.683 420.556 853.692 420.705 845.851 421.636 843.258 422.566 840.666 424.725 837.484 426.432 836.187 428.803 834.387 448.575 833.83 510.169 833.83 566.421 833.83 592.227 834.479 595.512 835.976 598.102 837.156 601.039 840.469 602.04 843.339 603.139 846.493 603.235 853.582 602.283 861.262 601.178 870.171 599.521 875.155 596.736 877.94 592.837 881.841 591.327 881.92 514.09 882.296 Z" fill="#646464" fill-opacity="1" stroke="none"/>
  </g>
  <path id="body" d="M607.951 799.89 L607.951 801.775 602.294 807.432 600.408 807.432 598.523 809.318 594.752 809.318 592.866 811.203 543.839 811.203 481.613 809.318 428.815 809.318 426.929 807.432 423.158 807.432 421.272 805.546 419.387 805.546 419.387 803.661 415.615 799.89 415.615 794.233 413.73 792.347 413.73 784.805 411.844 782.919 411.844 775.377 409.959 773.491 409.959 765.949 408.073 764.063 408.073 758.406 406.187 756.521 406.187 748.978 404.302 747.093 404.302 741.436 402.416 739.55 402.416 733.894 400.53 732.008 400.53 726.351 398.645 724.466 398.645 718.809 396.759 716.923 396.759 713.152 394.873 711.266 394.873 707.495 392.988 705.61 392.988 699.953 391.102 698.067 391.102 694.296 389.216 692.41 389.216 688.639 387.331 686.754 387.331 684.868 385.445 682.982 385.445 679.211 383.56 677.326 383.56 675.44 381.674 673.554 381.674 671.669 379.788 669.783 379.788 666.012 377.903 664.126 377.903 662.241 376.017 660.355 376.017 658.47 374.131 656.584 374.131 654.698 372.246 652.813 372.246 650.927 368.474 647.156 368.474 645.271 366.589 643.385 366.589 641.499 364.703 639.614 364.703 637.728 360.932 633.957 360.932 632.071 355.275 626.414 355.275 624.529 349.618 618.872 349.618 616.986 345.847 613.215 345.847 611.33 340.19 605.673 340.19 603.787 334.533 598.13 334.533 596.245 330.762 592.474 330.762 590.588 326.99 586.817 326.99 584.931 325.105 583.046 325.105 581.16 323.219 579.274 323.219 577.389 319.448 573.618 319.448 571.732 317.562 569.846 317.562 566.075 315.676 564.19 315.676 562.304 313.791 560.418 313.791 558.533 311.905 556.647 311.905 552.876 310.019 550.99 310.019 549.105 308.134 547.219 308.134 543.448 306.248 541.563 306.248 537.791 304.363 535.906 304.363 532.135 302.477 530.249 302.477 524.592 300.591 522.706 300.591 515.164 298.706 513.279 298.706 503.85 296.82 501.965 296.82 490.651 294.934 488.766 294.934 462.367 296.82 460.482 296.82 449.168 298.706 447.282 298.706 437.854 300.591 435.969 300.591 428.427 302.477 426.541 302.477 420.884 304.363 418.998 304.363 413.342 306.248 411.456 306.248 407.685 308.134 405.799 308.134 402.028 310.019 400.143 310.019 398.257 311.905 396.371 311.905 392.6 313.791 390.714 313.791 388.829 315.676 386.943 315.676 385.058 317.562 383.172 317.562 381.286 319.448 379.401 319.448 377.515 321.333 375.63 321.333 373.744 323.219 371.859 323.219 369.973 325.105 368.087 325.105 366.202 328.876 362.43 328.876 360.545 332.647 356.774 332.647 354.888 336.418 351.117 336.418 349.231 340.19 345.46 340.19 343.575 345.847 337.918 345.847 336.032 368.474 313.405 370.36 313.405 374.131 309.634 379.788 303.977 381.674 303.977 389.216 296.435 391.102 296.435 392.988 294.549 394.873 294.549 396.759 292.663 398.645 292.663 402.416 288.892 404.302 288.892 406.187 287.007 408.073 287.007 409.959 285.121 411.844 285.121 413.73 283.235 415.615 283.235 417.501 281.35 419.387 281.35 421.272 279.464 423.158 279.464 425.044 277.578 426.929 277.578 428.815 275.693 430.701 275.693 432.586 273.807 436.358 273.807 438.243 271.922 440.129 271.922 442.014 270.036 445.786 270.036 447.671 268.151 453.328 268.151 455.214 266.265 460.871 266.265 462.757 264.379 468.413 264.379 470.299 262.494 500.469 258.723 511.783 258.723 541.954 260.608 549.496 260.608 551.382 262.494 558.924 262.494 560.81 264.379 566.467 264.379 568.353 266.265 572.124 266.265 574.009 268.151 579.666 268.151 581.552 270.036 583.438 270.036 585.323 271.922 589.095 271.922 590.98 273.807 594.752 273.807 596.637 275.693 598.523 275.693 600.408 277.578 602.294 277.578 604.18 279.464 606.065 279.464 607.951 281.35 609.837 281.35 611.722 283.235 613.608 283.235 615.494 285.121 617.379 285.121 619.265 287.007 621.151 287.007 623.036 288.892 624.922 288.892 628.693 292.663 630.579 292.663 634.35 296.435 636.236 296.435 643.778 303.977 645.664 303.977 649.435 307.748 651.321 307.748 681.491 337.918 681.491 339.803 683.377 341.689 683.377 343.575 689.034 349.231 689.034 351.117 692.805 354.888 692.805 356.774 694.691 358.659 694.691 360.545 698.462 364.316 698.462 366.202 700.348 368.087 700.348 369.973 702.233 371.859 702.233 373.744 704.119 375.63 704.119 377.515 706.004 379.401 706.004 381.286 707.89 383.172 707.89 385.058 709.776 386.943 709.776 388.829 711.661 390.714 711.661 392.6 713.547 394.486 713.547 398.257 715.433 400.143 715.433 402.028 717.318 403.914 717.318 407.685 719.204 409.57 719.204 413.342 721.09 415.227 721.09 418.998 722.975 420.884 722.975 424.655 722.975 426.541 724.861 428.427 724.861 435.969 726.747 437.854 726.747 452.939 728.632 454.825 728.632 496.308 726.747 498.194 726.747 509.507 724.861 511.393 724.861 518.935 722.975 520.821 722.975 526.478 721.09 528.363 721.09 534.02 719.204 535.906 719.204 539.677 717.318 541.563 717.318 545.334 715.433 547.219 715.433 550.99 713.547 552.876 713.547 556.647 711.661 558.533 711.661 560.418 709.776 562.304 709.776 564.19 707.89 566.075 707.89 567.961 706.004 569.846 706.004 571.732 704.119 573.618 704.119 575.503 702.233 577.389 702.233 579.274 700.348 581.16 700.348 583.046 698.462 584.931 698.462 586.817 694.691 590.588 694.691 592.474 690.919 596.245 690.919 598.13 685.262 603.787 685.262 605.673 681.491 609.444 681.491 611.33 675.834 616.986 675.834 618.872 670.177 624.529 670.177 626.414 666.406 630.186 666.406 632.071 662.635 635.842 662.635 637.728 658.863 641.499 658.863 643.385 655.092 647.156 655.092 649.042 653.206 650.927 653.206 652.813 651.321 654.698 651.321 656.584 649.435 658.47 649.435 660.355 647.55 662.241 647.55 664.126 645.664 666.012 645.664 667.898 643.778 669.783 643.778 671.669 641.893 673.554 641.893 677.326 640.007 679.211 640.007 681.097 638.121 682.982 638.121 686.754 636.236 688.639 636.236 692.41 634.35 694.296 634.35 696.182 632.464 698.067 632.464 701.839 630.579 703.724 630.579 707.495 628.693 709.381 628.693 715.038 626.807 716.923 626.807 720.694 624.922 722.58 624.922 728.237 623.036 730.122 623.036 735.779 621.151 737.665 621.151 743.322 619.265 745.207 619.265 752.75 617.379 754.635 617.379 760.292 615.494 762.178 615.494 769.72 613.608 771.606 613.608 779.148 611.722 781.034 611.722 788.576 609.837 790.462 609.837 796.118 608.503 797.452 608.492 797.463 608.472 797.483 608.444 797.511 608.41 797.545 608.371 797.584 608.328 797.627 608.282 797.673 608.233 797.722 608.182 797.773 608.14 797.815 608.106 797.867 608.077 797.926 608.054 797.992 608.036 798.062 608.02 798.138 608.008 798.216 607.997 798.298 607.989 798.381 607.982 798.467 607.976 798.554 607.972 798.643 607.968 798.732 607.965 798.823 607.962 798.914 607.96 799.006 607.959 799.098 607.957 799.19 607.956 799.283 607.955 799.376 607.954 799.47 607.954 799.546 607.953 799.609 607.953 799.66 607.953 799.701 607.952 799.736 607.952 799.764 607.952 799.787 607.952 799.805 607.952 799.821 607.951 799.833 Z" fill="#f7ba00" fill-opacity="1" stroke="none"/>
  <g id="Rays">
   <path id="1-1" d="M155.397 477.369 C130.704 477.369 124.945 476.813 118.275 473.785 111.865 470.875 109.957 468.789 108.132 462.697 106.192 456.222 106.369 454.199 109.427 447.938 111.958 442.755 114.855 440.04 119.57 438.432 123.567 437.069 137.695 436.182 155.397 436.182 173.098 436.182 187.227 437.069 191.224 438.432 195.939 440.04 198.836 442.755 201.367 447.938 204.424 454.199 204.602 456.222 202.662 462.697 200.836 468.789 198.928 470.875 192.519 473.785 185.849 476.813 180.09 477.369 155.397 477.369 Z" fill="#f7ba00" fill-opacity="1" stroke="none"/>
   <path id="2-1" d="M279.691 254.951 C272.007 254.951 270.799 254.065 248.211 231.853 235.293 219.148 223.467 205.825 221.931 202.245 219.69 197.02 219.562 194.326 221.282 188.586 222.708 183.826 225.261 180.486 228.916 178.595 231.936 177.034 236.869 175.756 239.878 175.756 242.888 175.756 248.073 177.665 251.4 179.999 254.728 182.332 265.127 191.878 274.51 201.212 283.892 210.545 293.172 220.728 295.13 223.839 297.089 226.95 298.695 232.743 298.699 236.712 298.704 242.179 297.37 245.264 293.194 249.44 288.836 253.797 286.009 254.951 279.691 254.951 Z" fill="#f7ba00" fill-opacity="1" stroke="none"/>
   <path id="3" d="M511.618 166.328 C507.554 166.328 502.747 164.753 499.846 162.471 497.149 160.35 494.069 155.471 493.002 151.629 491.935 147.787 491.076 132.34 491.093 117.303 491.119 94.614 491.727 88.633 494.669 82.155 497.379 76.187 499.812 73.821 504.999 72.109 510.236 70.381 513.331 70.381 518.568 72.109 523.755 73.821 526.188 76.187 528.898 82.155 531.865 88.688 532.449 94.66 532.484 118.777 532.513 139.237 531.763 149.418 529.896 153.886 528.45 157.347 525.291 161.562 522.877 163.253 520.462 164.944 515.396 166.328 511.618 166.328 Z" fill="#f7ba00" fill-opacity="1" stroke="none"/>
   <path id="4" d="M743.887 254.951 C737.556 254.951 734.733 253.8 730.373 249.44 726.152 245.219 724.861 242.193 724.861 236.523 724.861 231.312 726.475 226.941 730.311 221.765 733.309 217.72 742.592 207.623 750.942 199.326 759.291 191.029 768.843 182.332 772.169 179.999 775.747 177.489 781.012 175.756 785.061 175.756 788.825 175.756 793.674 176.995 795.836 178.509 797.998 180.024 800.829 183.828 802.128 186.963 803.46 190.18 803.977 195.394 803.314 198.93 802.409 203.755 796.36 210.918 777.014 230.074 752.717 254.132 751.627 254.951 743.887 254.951 Z" fill="#f7ba00" fill-opacity="1" stroke="none"/>
   <path id="5" d="M868.17 477.239 C850.468 477.239 836.34 476.352 832.343 474.989 827.595 473.37 824.731 470.666 822.138 465.353 818.863 458.645 818.776 457.264 821.195 450.269 823.192 444.492 825.607 441.714 830.859 439.146 836.975 436.158 842.034 435.799 870.798 436.318 900.76 436.858 904.214 437.269 909.051 440.864 912.174 443.185 915.109 447.74 916.163 451.903 917.626 457.68 917.277 460.262 914.275 465.864 911.788 470.505 908.448 473.469 903.994 474.989 899.998 476.352 885.873 477.239 868.17 477.239 Z" fill="#f7ba00" fill-opacity="1" stroke="none"/>
  </g>
 </g>
</svg>
