<?xml version="1.0" encoding="iso-8859-1"?>
<!-- Generator: Adobe Illustrator 24.1.1, SVG Export Plug-In . SVG Version: 6.00 Build 0)  -->
<svg version="1.1" id="Layer_1" xmlns="http://www.w3.org/2000/svg" xmlns:xlink="http://www.w3.org/1999/xlink" x="0px" y="0px"
	 viewBox="0 0 56 56" style="enable-background:new 0 0 56 56;" xml:space="preserve">
<g id="bg">
</g>
<g id="star">
</g>
<g id="logo">
	<g>
		<g>
			<path style="fill:#7AC143;" d="M31,9v11.76L29.66,24h-3.32L25,20.76V9c0-0.552,0.448-1,1-1h4C30.552,8,31,8.448,31,9z"/>
			<path style="fill:#00AEEF;" d="M16.707,12.688l8.295,8.071l1.343,3.239l-2.348,2.348l-3.239-1.343l-8.071-8.295
				c-0.381-0.392-0.377-1.018,0.01-1.404l2.605-2.605C15.689,12.311,16.315,12.306,16.707,12.688z"/>
			<path style="fill:#EC008C;" d="M9,25h11.76L24,26.34v3.32L20.76,31H9c-0.552,0-1-0.448-1-1v-4C8,25.448,8.448,25,9,25z"/>
			<path style="fill:#F47B20;" d="M12.468,39.289l8.291-8.291l3.239-1.343l2.348,2.348l-1.343,3.239l-8.319,8.095
				c-0.382,0.372-0.99,0.378-1.38,0.014l-2.81-2.623C12.08,40.341,12.068,39.689,12.468,39.289z"/>
			<path style="fill:#00AEEF;" d="M25,47V35.24L26.34,32h3.32L31,35.24V47c0,0.552-0.448,1-1,1h-4C25.448,48,25,47.552,25,47z"/>
			<path style="fill:#7AC143;" d="M39.293,43.312l-8.295-8.071l-1.343-3.239l2.348-2.348l3.239,1.343l8.071,8.295
				c0.381,0.392,0.377,1.018-0.01,1.404l-2.605,2.605C40.311,43.689,39.685,43.694,39.293,43.312z"/>
			<path style="fill:#F47B20;" d="M47,31H35.24L32,29.66v-3.32L35.24,25H47c0.552,0,1,0.448,1,1v4C48,30.552,47.552,31,47,31z"/>
			<path style="fill:#EC008C;" d="M43.312,16.707l-8.071,8.295l-3.239,1.343l-2.348-2.348l1.343-3.239l8.295-8.071
				c0.392-0.381,1.018-0.377,1.404,0.01l2.605,2.605C43.689,15.689,43.694,16.315,43.312,16.707z"/>
		</g>
	</g>
</g>
</svg>
