<?xml version="1.0" encoding="utf-8"?>
<!-- Generator: Adobe Illustrator 26.0.0, SVG Export Plug-In . SVG Version: 6.00 Build 0)  -->
<svg version="1.1" id="star" xmlns="http://www.w3.org/2000/svg" xmlns:xlink="http://www.w3.org/1999/xlink" x="0px" y="0px"
	 viewBox="0 0 56 56" style="enable-background:new 0 0 56 56;" xml:space="preserve">
<style type="text/css">
	.st0{fill:#FFFFFF;}
</style>
<path class="st0" d="M47,25H35.2l8.1-8.3c0.4-0.4,0.4-1,0-1.4l-2.6-2.6c-0.4-0.4-1-0.4-1.4,0L31,20.8V9c0-0.6-0.4-1-1-1h-4
	c-0.6,0-1,0.4-1,1v11.8l-8.3-8.1c-0.4-0.4-1-0.4-1.4,0l-2.6,2.6c-0.4,0.4-0.4,1,0,1.4l8.1,8.3H9c-0.6,0-1,0.4-1,1v4c0,0.6,0.4,1,1,1
	h11.8l-8.3,8.3c-0.4,0.4-0.4,1.1,0,1.4l2.8,2.6c0.4,0.4,1,0.4,1.4,0l8.3-8.1V47c0,0.6,0.4,1,1,1h4c0.6,0,1-0.4,1-1V35.2l8.3,8.1
	c0.4,0.4,1,0.4,1.4,0l2.6-2.6c0.4-0.4,0.4-1,0-1.4L35.2,31H47c0.6,0,1-0.4,1-1v-4C48,25.4,47.6,25,47,25z M29.7,32h-3.3L24,29.7
	v-3.3l2.3-2.3h3.3l2.3,2.3v3.3L29.7,32z"/>
</svg>
